<?xml version="1.0" standalone="no"?>
<!DOCTYPE svg PUBLIC "-//W3C//DTD SVG 20010904//EN"
 "http://www.w3.org/TR/2001/REC-SVG-20010904/DTD/svg10.dtd">
<svg version="1.0" xmlns="http://www.w3.org/2000/svg"
 width="2812.000000pt" height="1536.000000pt" viewBox="0 0 2812.000000 1536.000000"
 preserveAspectRatio="xMidYMid meet">

<g transform="translate(0.000000,1536.000000) scale(0.100000,-0.100000)"
fill="currentColor" stroke="none">
<path d="M9264 12869 c-3 -6 -3 -143 1 -305 l7 -294 51 -15 c28 -8 56 -15 64
-15 20 0 39 38 64 134 13 49 29 90 35 93 7 2 135 -23 285 -56 151 -33 375 -81
499 -107 124 -25 228 -49 232 -53 3 -3 8 -106 10 -229 2 -162 0 -222 -8 -222
-13 0 -255 59 -1494 365 -454 112 -841 207 -861 210 l-36 7 -10 -52 c-8 -37
-7 -53 1 -55 31 -11 911 -234 1614 -410 l792 -198 0 -357 0 -356 -35 -17 c-33
-16 -35 -19 -35 -67 0 -43 5 -55 35 -89 32 -35 35 -44 35 -101 0 -48 -3 -61
-13 -57 -8 3 -58 11 -111 17 -92 12 -98 12 -119 -7 -30 -27 -135 -40 -143 -18
-9 22 -49 19 -65 -5 -9 -13 -19 -17 -27 -12 -10 7 5 40 59 133 40 68 126 233
191 367 l119 242 -51 74 c-27 41 -54 77 -59 80 -9 6 -23 -26 -197 -449 -58
-143 -113 -275 -120 -294 -19 -47 -24 -36 -11 26 10 47 5 79 -51 365 -34 172
-65 332 -68 356 -4 23 -11 45 -15 48 -9 5 -113 -70 -137 -98 -9 -11 -4 -48 23
-166 45 -199 130 -511 162 -590 23 -59 24 -65 9 -87 -18 -27 -21 -71 -6 -80 6
-3 8 -18 4 -33 -3 -15 -7 -37 -10 -49 -2 -12 -24 -45 -49 -74 -29 -34 -91
-144 -177 -314 l-132 -262 48 -81 c26 -45 51 -82 55 -82 9 0 209 508 262 665
39 114 62 140 67 75 11 -135 80 -549 118 -712 l26 -110 35 34 c19 18 44 45 54
60 l20 28 -36 142 c-20 79 -66 246 -101 372 -41 145 -63 239 -59 254 3 13 1
30 -6 38 -23 28 10 14 42 -18 28 -29 38 -32 93 -33 l61 -1 5 -39 c3 -27 10
-41 23 -43 13 -3 17 3 17 23 0 23 3 26 23 21 12 -3 25 -6 30 -6 4 0 7 -11 7
-25 0 -35 28 -44 51 -17 l17 22 49 -19 c41 -16 48 -22 45 -42 -2 -13 -30 -140
-63 -282 -73 -315 -116 -527 -125 -610 -6 -61 -5 -64 25 -94 l30 -31 -30 -75
c-17 -42 -38 -78 -47 -82 -9 -3 -28 3 -43 14 -25 18 -28 19 -34 4 -8 -22 25
-65 59 -77 54 -20 77 0 126 111 36 82 50 104 74 115 31 14 50 56 319 718 37
91 72 172 77 179 7 13 42 4 217 -51 114 -37 344 -110 511 -163 360 -113 467
-154 467 -178 0 -29 20 -40 45 -25 20 12 25 9 67 -37 84 -94 206 -322 264
-493 l29 -86 -64 -61 c-71 -70 -108 -138 -125 -229 -23 -122 -7 -197 95 -456
37 -94 65 -173 62 -176 -3 -3 -47 7 -98 21 -51 14 -104 26 -119 27 -53 1 -176
-15 -188 -25 -24 -18 -15 -57 17 -75 19 -11 30 -25 30 -40 0 -26 -26 -40 -43
-23 -19 19 -44 12 -75 -23 l-30 -34 -148 44 c-216 64 -285 58 -364 -32 -51
-59 -74 -119 -74 -199 -1 -60 3 -78 29 -124 38 -70 74 -91 220 -136 297 -91
731 -228 743 -234 8 -5 -9 -34 -59 -96 -39 -50 -118 -151 -175 -225 -57 -74
-121 -154 -142 -178 l-38 -43 -37 16 c-60 25 -108 -5 -110 -68 -2 -75 -5 -73
478 -297 105 -48 350 -163 545 -255 730 -344 763 -359 847 -370 109 -14 244
37 341 131 42 40 52 57 52 83 0 34 -37 81 -64 81 -29 0 -72 -22 -106 -54 -53
-49 -153 -90 -202 -82 -37 6 -428 188 -428 200 0 7 261 350 273 357 5 4 32 -5
59 -19 46 -24 52 -25 77 -11 16 9 27 25 29 42 3 22 -3 31 -28 45 -68 37 -67
35 -29 83 67 86 270 309 282 310 31 3 59 -4 157 -40 l105 -39 5 -74 5 -73 85
-12 c116 -16 156 -16 173 1 13 13 18 11 40 -12 25 -27 135 -207 165 -269 15
-31 15 -34 -8 -58 -18 -20 -22 -31 -17 -62 4 -20 17 -47 29 -59 13 -13 136
-72 273 -132 138 -60 423 -187 635 -282 975 -436 908 -410 1030 -410 97 0 155
18 255 79 95 58 120 92 104 140 -23 65 -63 66 -163 6 -93 -57 -156 -79 -202
-72 -36 6 -530 222 -551 241 -15 14 -216 396 -211 402 2 2 21 -2 41 -8 32 -10
40 -9 57 7 13 12 20 29 18 44 -3 22 -17 31 -103 67 l-100 42 -41 70 c-23 38
-47 87 -54 108 -7 22 -19 52 -27 67 -13 27 -13 28 17 38 31 11 38 25 42 93 4
49 32 72 106 86 45 8 59 7 90 -9 20 -10 118 -44 217 -76 99 -31 263 -84 363
-117 157 -51 192 -60 238 -56 109 9 198 99 225 226 22 107 -22 207 -110 251
-20 10 -113 44 -208 75 -134 45 -171 61 -166 72 7 19 -20 49 -58 64 -18 8 -29
20 -29 32 0 18 5 19 64 13 58 -6 65 -5 75 13 6 12 11 32 11 46 0 22 -7 27 -57
42 -86 24 -86 24 -57 133 28 110 54 294 54 389 0 81 -24 298 -44 402 -19 101
-86 304 -139 420 -150 333 -408 637 -690 813 -98 62 -340 171 -484 219 -54 18
-100 34 -102 35 -2 2 2 79 9 173 15 202 8 233 -67 300 l-46 40 14 83 c13 73
16 82 37 85 13 2 40 -7 60 -21 72 -49 268 -88 334 -66 79 26 177 5 1548 -333
558 -137 1283 -314 1610 -393 327 -79 805 -196 1061 -259 256 -64 480 -116
498 -116 42 0 121 20 121 31 0 15 -243 77 -1170 300 -1288 309 -3535 870
-3550 886 -6 6 29 4 505 -38 187 -16 446 -38 575 -50 129 -11 426 -38 660 -60
1002 -94 1823 -169 1843 -169 37 0 2 17 -129 60 -120 39 -128 40 -615 90 -272
27 -804 79 -1184 115 -1784 169 -1701 160 -1803 190 -27 8 -67 29 -88 46 -38
30 -42 31 -116 27 -62 -4 -76 -2 -67 8 24 29 -83 125 -208 188 -205 102 -458
115 -612 30 -24 -13 -47 -24 -51 -24 -5 0 -143 59 -307 131 -662 292 -1210
526 -1273 545 -89 26 -227 45 -370 51 -101 4 -142 2 -135 -5 6 -6 66 -33 135
-60 69 -28 204 -84 300 -125 264 -113 831 -350 1040 -435 102 -41 190 -79 195
-85 26 -25 -166 8 -470 83 -771 188 -945 232 -1635 404 l-725 182 -7 60 c-8
71 -28 428 -24 432 3 2 312 -40 781 -106 l120 -17 3 -118 c3 -116 3 -118 29
-128 45 -17 101 -27 113 -19 14 9 90 264 90 305 0 33 -44 223 -61 267 -9 23
-19 28 -81 38 -58 10 -72 10 -79 -1 -5 -8 -9 -55 -9 -105 0 -50 -2 -93 -5 -96
-3 -3 -189 32 -414 78 -467 95 -846 159 -1406 239 -214 31 -393 61 -396 67 -4
6 -19 54 -34 107 -37 131 -41 137 -118 150 -78 13 -74 13 -83 0z m3075 -1654
c925 -230 1229 -309 1245 -324 47 -44 115 -64 241 -71 85 -4 130 -11 153 -23
17 -10 32 -21 32 -25 0 -4 -71 -27 -157 -51 l-158 -43 -255 27 c-140 14 -295
27 -343 28 -86 2 -89 1 -114 -27 -21 -25 -24 -35 -19 -75 34 -267 46 -374 44
-376 -2 -2 -75 6 -164 18 l-161 20 -12 34 c-7 18 -23 41 -37 49 -14 10 -24 26
-24 39 0 26 39 228 46 234 4 5 187 -17 217 -25 11 -4 17 0 17 10 0 18 -20 24
-226 65 -173 36 -304 50 -304 33 0 -17 12 -21 112 -43 51 -11 94 -22 96 -24 5
-5 -15 -147 -29 -216 -10 -45 -12 -47 -55 -58 -32 -8 -48 -19 -56 -36 -13 -30
-14 -30 -156 -5 -112 20 -1082 167 -1262 192 l-95 13 -12 159 c-16 207 -53
796 -53 840 l0 34 133 -34 c72 -19 683 -172 1356 -339z m1972 -592 c-6 -34 -9
-38 -40 -41 -40 -4 -171 17 -171 27 0 8 201 60 211 55 3 -2 3 -20 0 -41z m353
-55 c22 -28 28 -30 36 -18 5 8 10 23 10 33 0 13 9 17 41 17 l41 0 -6 -47 c-14
-103 -15 -105 -44 -98 -49 12 -162 68 -162 80 0 15 38 65 50 65 5 0 20 -15 34
-32z m-74 -653 c118 -17 243 -61 341 -120 139 -83 141 -80 -29 -81 -170 -1
-288 -19 -441 -69 l-104 -34 -56 40 c-36 25 -110 59 -211 95 -85 30 -156 57
-158 59 -6 6 108 61 166 80 137 45 322 56 492 30z m534 -129 c63 -24 260 -125
254 -131 -8 -8 -189 34 -210 48 -73 52 -138 107 -124 107 9 0 45 -11 80 -24z
m-29 -165 c42 -7 57 -16 100 -63 161 -173 323 -479 424 -802 36 -116 95 -385
86 -394 -14 -14 -646 95 -956 165 l-166 37 -6 226 c-8 299 -36 460 -112 641
-19 45 -34 84 -32 85 35 29 200 84 302 100 92 14 287 17 360 5z m403 -95 c145
-56 193 -85 281 -170 158 -153 281 -339 384 -576 54 -126 101 -269 122 -368
24 -115 25 -112 -48 -112 -80 0 -408 37 -419 48 -4 4 -12 43 -18 87 -16 116
-73 344 -114 460 -77 213 -240 507 -355 637 -23 25 -41 48 -41 51 0 10 121
-23 208 -57z m-1342 -8 c63 -43 115 -119 158 -232 75 -195 102 -353 93 -544
-4 -101 -14 -153 -71 -373 -81 -315 -112 -482 -128 -683 l-12 -156 -36 5 c-19
3 -93 12 -165 21 -191 23 -201 26 -229 82 -55 108 -134 422 -157 621 -25 223
0 676 51 913 24 111 49 158 124 236 92 96 178 140 277 141 37 1 57 -6 95 -31z
m824 -1152 c146 -30 327 -64 403 -77 l137 -23 0 -126 c-1 -319 -99 -691 -234
-878 -43 -61 -156 -154 -239 -198 l-71 -37 -70 18 c-39 9 -113 37 -164 62
-165 78 -288 223 -299 353 -5 49 -1 64 30 125 87 174 111 320 106 647 l-4 225
70 -19 c39 -10 189 -42 335 -72z m1240 -174 l84 -7 9 -40 c15 -69 0 -318 -27
-435 -97 -419 -304 -670 -608 -739 -21 -5 -38 -8 -38 -7 0 23 58 158 91 211
102 167 174 349 209 533 18 91 44 395 39 462 0 14 -1 29 0 33 1 5 36 5 79 2
42 -4 115 -10 162 -13z m-4003 -199 c47 -15 71 -33 43 -33 -24 0 -130 34 -130
42 0 12 28 10 87 -9z m318 -33 c4 -11 18 -34 32 -50 14 -17 23 -33 20 -36 -3
-3 -24 -3 -47 1 -37 6 -41 10 -36 29 3 11 6 33 6 49 0 31 16 36 25 7z m193
-262 c18 -18 15 -42 -7 -62 -38 -34 -86 8 -61 54 12 22 49 27 68 8z m122 -22
c28 -35 -11 -93 -47 -70 -36 22 -23 84 17 84 10 0 23 -7 30 -14z m-202 -124
c6 -57 -66 -66 -84 -10 -5 16 -1 27 15 39 31 26 65 11 69 -29z m117 4 c13 -19
14 -29 5 -45 -20 -38 -80 -24 -80 18 0 52 48 69 75 27z m116 -6 c20 -11 25
-45 10 -68 -5 -8 -21 -12 -37 -10 -24 2 -30 8 -32 33 -3 19 2 33 14 42 21 16
20 16 45 3z m-207 -96 c23 -9 21 -61 -3 -74 -26 -14 -50 -3 -57 26 -10 40 20
63 60 48z m394 -71 c122 -76 261 -144 410 -198 93 -35 118 -54 93 -69 -5 -3
-39 -58 -76 -121 -75 -129 -182 -284 -358 -520 -66 -88 -122 -162 -123 -164
-7 -8 -934 427 -934 438 0 3 25 38 56 76 31 39 117 151 192 250 74 99 147 194
160 211 l25 32 79 -29 c89 -33 144 -36 211 -13 53 18 118 82 138 137 7 21 15
37 17 37 2 0 52 -30 110 -67z m-260 45 c17 -17 15 -53 -3 -68 -20 -17 -62 -5
-70 20 -14 44 41 80 73 48z m2838 -159 c37 -41 -23 -139 -85 -139 -40 0 -91
35 -91 63 0 23 37 82 66 103 20 15 87 -1 110 -27z m984 -194 c10 -12 10 -21 2
-40 -14 -31 -56 -34 -72 -5 -24 44 38 83 70 45z m120 -20 c10 -12 10 -21 2
-40 -14 -31 -56 -34 -72 -5 -24 44 38 83 70 45z m-202 -87 c18 -18 14 -45 -10
-62 -37 -26 -79 14 -58 55 12 21 50 25 68 7z m120 -10 c7 -7 12 -21 12 -33 0
-44 -60 -63 -80 -26 -14 27 -13 37 6 55 18 19 45 21 62 4z m113 -18 c22 -13
25 -52 5 -70 -8 -6 -25 -10 -38 -8 -30 4 -38 56 -12 75 21 16 20 16 45 3z
m-1720 -142 c18 -47 18 -48 -3 -95 -18 -38 -22 -67 -23 -143 0 -83 3 -101 25
-140 29 -52 95 -105 148 -120 61 -17 158 -12 200 9 38 20 71 51 90 86 10 18
11 18 27 -10 9 -17 61 -109 114 -205 54 -96 97 -176 96 -178 -2 -3 -74 30
-450 202 -39 18 -87 47 -108 65 -20 19 -34 26 -31 17 10 -25 -10 -20 -145 40
l-126 56 -100 185 c-55 102 -101 190 -103 194 -2 5 15 9 39 9 37 0 47 5 78 40
l36 40 109 -2 108 -3 19 -47z m1524 12 c0 -32 -3 -35 -32 -38 -28 -3 -33 1
-39 23 -8 33 12 57 45 53 22 -3 26 -8 26 -38z m115 16 c28 -35 -11 -93 -47
-70 -24 15 -28 48 -8 68 20 20 39 20 55 2z"/>
<path d="M17823 8440 c-230 -34 -465 -172 -589 -345 -58 -82 -119 -214 -147
-318 l-22 -82 0 -1080 c0 -1009 1 -1086 18 -1165 71 -326 313 -576 655 -673
l77 -22 1285 -3 c1156 -3 1295 -1 1385 14 354 58 616 283 717 614 22 75 22 79
26 803 l3 727 -1356 0 c-1295 0 -1355 -1 -1355 -18 0 -41 33 -142 71 -220 76
-155 229 -283 413 -346 59 -20 84 -20 749 -24 l687 -3 0 -414 0 -415 -1290 0
-1290 0 0 1130 0 1130 1674 0 c921 0 1677 3 1679 8 8 12 -32 150 -63 218 -102
226 -300 389 -565 465 l-80 23 -1315 2 c-723 1 -1338 -2 -1367 -6z"/>
<path d="M22695 8435 c-154 -29 -287 -90 -413 -191 -137 -110 -230 -251 -290
-442 l-27 -87 -3 -1070 c-2 -745 0 -1093 8 -1147 45 -313 254 -569 560 -687
150 -58 100 -56 1450 -56 l1245 0 85 23 c162 45 296 121 412 235 123 121 210
299 238 487 8 53 10 390 8 1150 l-3 1075 -23 73 c-98 318 -314 533 -628 624
l-79 23 -1235 2 c-982 1 -1249 -1 -1305 -12z m2479 -673 c9 -16 9 -2313 -1
-2323 -6 -6 -462 -8 -1214 -7 l-1204 3 -3 1155 c-1 635 0 1161 3 1168 3 9 255
12 1209 12 663 0 1207 -4 1210 -8z"/>
<path d="M2671 8389 c-208 -27 -433 -152 -560 -311 -67 -83 -136 -223 -164
-328 l-22 -85 0 -1090 0 -1090 23 -90 c12 -49 46 -137 74 -195 46 -95 61 -115
152 -205 108 -106 201 -167 322 -211 148 -54 143 -54 1403 -54 751 0 1197 4
1251 10 200 25 388 118 535 265 101 101 143 166 191 293 30 80 58 217 47 235
-2 4 -688 7 -1524 7 l-1519 0 0 1030 0 1030 1521 0 1520 0 -7 58 c-9 77 -48
211 -80 275 -122 242 -373 419 -647 456 -94 13 -2417 13 -2516 0z"/>
<path d="M7375 8386 c-103 -16 -171 -39 -265 -87 -174 -90 -295 -212 -379
-383 -86 -174 -86 -173 -86 -636 0 -397 0 -406 23 -480 55 -173 168 -330 317
-439 90 -65 251 -132 366 -151 42 -6 494 -10 1287 -10 l1222 0 0 -345 0 -345
-1606 0 -1606 0 6 -54 c26 -203 156 -417 332 -542 96 -68 226 -130 327 -156
l92 -23 1305 0 1305 0 85 23 c173 46 304 125 437 266 63 66 91 106 127 179 85
174 89 201 94 606 2 220 0 384 -7 434 -37 271 -211 511 -466 639 -27 14 -88
39 -135 54 l-85 29 -1262 3 -1263 3 -5 22 c-3 12 -4 159 -3 327 l3 305 1574 3
1574 2 -6 59 c-4 32 -19 97 -35 144 -89 263 -302 459 -587 539 l-80 23 -1260
2 c-973 1 -1278 -2 -1340 -11z"/>
</g>
</svg>
